<svg xmlns="http://www.w3.org/2000/svg" viewBox="0 0 192 192">
  <rect fill="#1e3a8a" width="192" height="192" rx="32"/>
  <path fill="#fff" d="M96 32c-35.3 0-64 28.7-64 64 0 17.7 7.2 33.7 18.8 45.3l7.2-7.2c3.9-3.9 3.9-10.2 0-14.1-3.9-3.9-10.2-3.9-14.1 0l-7.2 7.2C25.4 110.5 16 103.4 16 95c0-44.2 35.8-80 80-80s80 35.8 80 80c0 8.4-1.3 16.5-3.7 24l8.7-8.7c3.9-3.9 10.2-3.9 14.1 0 3.9 3.9 3.9 10.2 0 14.1l-8.7 8.7C152.8 140.7 168 118.4 168 96c0-35.3-28.7-64-64-64z"/>
  <circle fill="#10b981" cx="96" cy="96" r="24"/>
  <path fill="#fff" d="M90 90l12 12 24-24" stroke="#fff" stroke-width="4" fill="none"/>
</svg>